<svg width="11" height="12" viewBox="0 0 11 12" fill="none" xmlns="http://www.w3.org/2000/svg">
<path fill-rule="evenodd" clip-rule="evenodd" d="M5.5 1.49096C6.9685 1.49096 7.14248 1.49658 7.72249 1.52298C8.25862 1.54748 8.54981 1.63713 8.74359 1.71236C9.00038 1.81216 9.18359 1.93138 9.37603 2.12382C9.56853 2.31632 9.6877 2.49947 9.78756 2.7562C9.86284 2.95005 9.95249 3.24124 9.97694 3.77749C10.0033 4.35744 10.009 4.53142 10.009 5.99993C10.009 7.46849 10.0033 7.64247 9.97694 8.22248C9.95249 8.75867 9.86284 9.04987 9.78756 9.24359C9.68782 9.50038 9.56853 9.68353 9.37603 9.87603C9.18359 10.0685 9.00044 10.1878 8.74359 10.2876C8.54981 10.3628 8.25843 10.4526 7.72249 10.4769C7.14248 10.5034 6.96868 10.509 5.5 10.509C4.03132 10.509 3.85739 10.5034 3.27751 10.4769C2.74126 10.4526 2.45007 10.3628 2.25628 10.2876C1.99949 10.1879 1.81634 10.0685 1.62384 9.87603C1.43134 9.68353 1.31218 9.50038 1.21238 9.24359C1.13716 9.04987 1.04744 8.75861 1.023 8.22248C0.996539 7.64247 0.990917 7.46855 0.990917 5.99993C0.990917 4.53142 0.996539 4.3575 1.023 3.77749C1.04744 3.24124 1.13716 2.95005 1.21238 2.7562C1.31218 2.49947 1.43134 2.31632 1.62384 2.12382C1.81628 1.93138 1.99949 1.81216 2.25628 1.71236C2.45007 1.63707 2.74126 1.54748 3.27751 1.52298C3.85752 1.49658 4.03144 1.49096 5.5 1.49096ZM5.5 0.5C4.00626 0.5 3.81896 0.506313 3.23235 0.533092C2.64691 0.559864 2.24712 0.652814 1.89726 0.788756C1.5356 0.9293 1.22888 1.11738 0.923144 1.42312C0.617406 1.72886 0.4293 2.03564 0.288756 2.39724C0.152754 2.74716 0.0598034 3.14695 0.0330856 3.73233C0.00631283 4.31894 0 4.50624 0 5.99993C0 7.49367 0.00625172 7.68091 0.0330856 8.26752C0.0598034 8.85303 0.152754 9.25269 0.288756 9.60262C0.4293 9.96427 0.617406 10.2711 0.923144 10.5769C1.22894 10.8827 1.5356 11.0707 1.89726 11.2112C2.24712 11.3473 2.64684 11.4402 3.23235 11.4669C3.81896 11.4936 4.00626 11.5 5.5 11.5C6.99362 11.5 7.18092 11.4937 7.76759 11.4669C8.35303 11.4402 8.75282 11.3473 9.10256 11.2112C9.46428 11.0707 9.771 10.8827 10.0769 10.5769C10.3827 10.2711 10.5706 9.96427 10.7113 9.60262C10.8472 9.25269 10.9402 8.85303 10.9669 8.26752C10.9936 7.68097 11 7.49367 11 5.99993C11 4.50624 10.9938 4.319 10.9669 3.73233C10.9402 3.14695 10.8472 2.7471 10.7113 2.39724C10.5706 2.03564 10.3827 1.72886 10.0769 1.42312C9.771 1.11738 9.46428 0.9293 9.10256 0.788756C8.75282 0.652814 8.35303 0.559864 7.76759 0.533092C7.18098 0.506313 6.99362 0.5 5.5 0.5ZM5.50043 3.17567C3.94063 3.17567 2.67612 4.44012 2.67612 5.99993C2.67612 7.55979 3.94063 8.82418 5.50043 8.82418C7.06023 8.82418 8.32468 7.55985 8.32468 5.99993C8.32474 4.44012 7.06023 3.17567 5.50043 3.17567ZM5.50043 7.83314C4.48794 7.83314 3.66709 7.01242 3.66709 5.99987C3.66709 4.98744 4.48794 4.16665 5.50043 4.16665C6.51292 4.16665 7.33364 4.98744 7.33364 5.99987C7.3337 7.01242 6.51298 7.83314 5.50043 7.83314ZM9.09584 3.06402C9.09584 3.42849 8.80037 3.72396 8.43584 3.72396C8.07131 3.72396 7.77596 3.42843 7.77596 3.06402C7.77596 2.69949 8.07149 2.40408 8.43584 2.40408C8.80037 2.40402 9.09584 2.69949 9.09584 3.06402Z" fill="black"/>
</svg>
