<svg width="11" height="12" viewBox="0 0 11 12" fill="none" xmlns="http://www.w3.org/2000/svg">
<path fill-rule="evenodd" clip-rule="evenodd" d="M0.182586 4.1519H2.46232V11.5H0.182586V4.1519ZM3.89133 4.15178H6.07755V5.15557H6.11062C6.41299 4.57839 7.15817 3.97065 8.26653 3.97065C10.5738 3.97065 11 5.49149 11 7.47121V11.4999H8.72309V7.92764C8.72309 7.07522 8.70659 5.97805 7.53785 5.97805C6.35261 5.97805 6.17112 6.90747 6.17112 7.86421V11.4998H3.89133V4.15178ZM1.32274 0.5C2.05142 0.5 2.64272 1.0941 2.64272 1.82294C2.64272 2.55443 2.05142 3.14811 1.32274 3.14811C0.591225 3.14811 0 2.55443 0 1.82294C0 1.09403 0.591158 0.5 1.32274 0.5Z" fill="black"/>
</svg>
