<svg width="24" height="24" viewBox="0 0 24 24" fill="none" xmlns="http://www.w3.org/2000/svg">
<rect width="24" height="24" rx="12" fill="#32A060"/>
<path d="M17.2188 7.57812C17.3438 7.69271 17.4062 7.83333 17.4062 8C17.4062 8.16667 17.3438 8.30729 17.2188 8.42188L10.0312 15.625C9.90625 15.7396 9.76042 15.7969 9.59375 15.7969C9.42708 15.7969 9.28646 15.7396 9.17188 15.625L6.375 12.8281C6.26042 12.7135 6.20312 12.5729 6.20312 12.4062C6.20312 12.2396 6.26042 12.0938 6.375 11.9688C6.48958 11.8542 6.63021 11.7969 6.79688 11.7969C6.96354 11.7969 7.10417 11.8542 7.21875 11.9688L9.59375 14.3438L16.375 7.57812C16.4896 7.46354 16.6302 7.40625 16.7969 7.40625C16.9635 7.40625 17.1042 7.46354 17.2188 7.57812Z" fill="white"/>
</svg>
