<svg width="11" height="12" viewBox="0 0 11 12" fill="none" xmlns="http://www.w3.org/2000/svg">
<path fill-rule="evenodd" clip-rule="evenodd" d="M0.623872 0.175343V0.361644C0.623872 1.62192 1.64177 1.87397 1.64177 1.87397C1.64177 1.87397 0.623872 1.77534 0.623872 2.04931C0.623872 2.32329 1.51042 2.67397 1.51042 2.67397C1.51042 2.67397 0 2.91507 0 3.18904C0 3.26575 0.0985066 3.28767 0.284573 3.32055C0.291315 3.32183 0.298179 3.32314 0.305164 3.32447C0.536325 3.3684 0.900037 3.43753 1.34625 3.68219C0.711432 4.54794 0.339299 5.62192 0.339299 6.7726C0.339299 9.65479 2.67061 12 5.56011 12C6.57801 12 7.53023 11.7041 8.34017 11.2C8.2745 11.1014 8.25261 10.9699 8.29639 10.8493C8.53718 10.2027 8.63569 9.74246 8.6138 9.33698C8.58096 8.94246 8.43868 8.58082 8.14316 8.15342C7.98091 7.91516 7.81866 7.74111 7.66697 7.57839L7.66157 7.5726L7.54118 7.45206C7.42078 7.33151 7.31133 7.22192 7.21282 7.10137C7.07054 6.93699 6.95014 6.75069 6.86258 6.50959C6.77502 6.27945 6.73124 5.99452 6.73124 5.64384C6.73124 4.67945 7.377 3.90137 8.16505 3.58356C8.64663 3.3863 9.18294 3.35343 9.67547 3.55069C8.72325 2.32329 7.23471 1.53425 5.56011 1.53425C5.43974 1.53425 5.30834 1.53425 5.17703 1.5452C1.94669 1.45866 1.00919 0.400443 0.732881 0.0885599C0.729268 0.0844817 0.725768 0.0805311 0.722378 0.076712C0.667652 0.0219175 0.645761 0 0.634816 0C0.623872 0 0.623872 0.054818 0.623872 0.175343ZM5.0132 6.01645C4.98036 6.01645 4.92564 6.00549 4.83808 5.97262C4.70674 5.92878 4.55351 5.90686 4.40027 5.90686C4.26893 5.90686 4.13759 5.92878 4.0172 5.96166C3.98436 5.96896 3.95761 5.97627 3.93531 5.98235C3.89072 5.99453 3.86396 6.00184 3.84207 5.99453C3.82018 5.99453 3.78735 5.97261 3.76546 5.9507C3.74357 5.92878 3.73262 5.8959 3.72168 5.83015C3.69979 5.73152 3.68884 5.62193 3.68884 5.51234C3.68884 4.95344 4.02814 4.50412 4.44405 4.50412C4.85997 4.50412 5.19927 4.95344 5.19927 5.51234C5.19927 5.63289 5.18832 5.74248 5.15549 5.85207C5.1336 5.91782 5.12265 5.9507 5.10076 5.97262C5.07887 5.99453 5.04603 6.01645 5.0132 6.01645Z" fill="black"/>
<path d="M8.3294 8.02191C7.63985 7.03561 6.96126 6.96985 6.96126 5.63287C6.96126 3.90136 9.28162 2.82739 10.3761 4.36164C10.8468 5.01917 11 6.03835 11 6.82739C11 8.60273 10.1025 10.1699 8.73436 11.1123C8.60302 11.2 8.44979 11.0685 8.50452 10.9151C8.99705 9.61095 8.95327 8.92054 8.3294 8.02191Z" fill="black"/>
</svg>
