<svg width="12" height="7" viewBox="0 0 12 7" fill="none" xmlns="http://www.w3.org/2000/svg">
<path d="M0.472656 0.710938C0.615885 0.567708 0.791667 0.496094 1 0.496094C1.20833 0.496094 1.38411 0.567708 1.52734 0.710938L6 5.18359L10.4727 0.710938C10.6159 0.567708 10.7917 0.496094 11 0.496094C11.2083 0.496094 11.3841 0.567708 11.5273 0.710938C11.6706 0.867188 11.7422 1.04948 11.7422 1.25781C11.7422 1.46615 11.6706 1.64193 11.5273 1.78516L6.87891 6.43359C6.64453 6.66797 6.35156 6.78516 6 6.78516C5.64844 6.78516 5.35547 6.66797 5.12109 6.43359L0.472656 1.78516C0.329427 1.64193 0.257812 1.46615 0.257812 1.25781C0.257812 1.04948 0.329427 0.867188 0.472656 0.710938Z" fill="#222222"/>
</svg>
