<svg width="24" height="24" viewBox="0 0 24 24" fill="none" xmlns="http://www.w3.org/2000/svg">
<rect width="24" height="24" rx="12" fill="#F85059"/>
<path d="M7.57812 7.57812C7.69271 7.46354 7.83333 7.40625 8 7.40625C8.16667 7.40625 8.30729 7.46354 8.42188 7.57812L16.4219 15.5781C16.5365 15.6927 16.5938 15.8333 16.5938 16C16.5938 16.1667 16.5365 16.3073 16.4219 16.4219C16.3073 16.5365 16.1667 16.5938 16 16.5938C15.8333 16.5938 15.6927 16.5365 15.5781 16.4219L7.57812 8.42188C7.46354 8.30729 7.40625 8.16667 7.40625 8C7.40625 7.83333 7.46354 7.69271 7.57812 7.57812ZM7.57812 16.4219C7.46354 16.3073 7.40625 16.1667 7.40625 16C7.40625 15.8333 7.46354 15.6927 7.57812 15.5781L15.5781 7.57812C15.6927 7.46354 15.8333 7.40625 16 7.40625C16.1667 7.40625 16.3073 7.46354 16.4219 7.57812C16.5365 7.69271 16.5938 7.83333 16.5938 8C16.5938 8.16667 16.5365 8.30729 16.4219 8.42188L8.42188 16.4219C8.30729 16.5365 8.16667 16.5938 8 16.5938C7.83333 16.5938 7.69271 16.5365 7.57812 16.4219Z" fill="white"/>
</svg>
